<svg width="75" height="75" viewBox="0 0 75 75" fill="none" xmlns="http://www.w3.org/2000/svg">
<path d="M37.5 0C22.6669 0 10.5979 12.0683 10.5979 26.9021C10.5979 37.1914 13.3099 40.7647 35.4667 73.9132C35.9205 74.5923 36.6833 75 37.5 75C38.3168 75 39.0794 74.5923 39.5334 73.9134C61.6893 40.7763 64.4022 37.0838 64.4022 26.9023C64.4022 12.0683 52.3332 0 37.5 0ZM37.5 39.1304C30.7571 39.1304 25.2718 33.6451 25.2718 26.9021C25.2718 20.1592 30.7571 14.6739 37.5 14.6739C44.243 14.6739 49.7283 20.1592 49.7283 26.9021C49.7283 33.6451 44.243 39.1304 37.5 39.1304Z" fill="#5B228D"/>
</svg>
