<svg width="135" height="115" viewBox="0 0 135 115" fill="none" xmlns="http://www.w3.org/2000/svg">
<path d="M132.447 52.4184L73.385 2.10594C71.7376 0.702578 69.5776 0 67.4197 0C65.2618 0 63.1018 0.702578 61.4544 2.10594L2.39187 52.4184C-0.902972 55.2323 -0.738441 59.6347 2.5564 62.4414C5.85968 65.2625 10.688 65.6776 13.9934 62.8619L16.8748 60.4055V107.812C16.8748 111.785 20.6485 115 25.3123 115H59.0623V86.25H75.9373V115H109.687C114.351 115 118.125 111.785 118.125 107.812V60.5457L120.646 62.693C123.94 65.4997 128.975 65.2481 132.281 62.4396C135.578 59.6347 135.751 55.2252 132.447 52.4184Z" fill="#FF5A1F"/>
</svg>
