<svg width="135" height="120" viewBox="0 0 135 120" fill="none" xmlns="http://www.w3.org/2000/svg">
<path d="M122.727 64.4291V81.8182C122.727 91.9446 118.202 101.656 110.146 108.817C102.091 115.977 91.165 120 79.7727 120C68.3805 120 57.4548 115.977 49.3993 108.817C41.3437 101.656 36.8182 91.9446 36.8182 81.8182V75.9273C26.6068 74.6103 17.2689 70.0727 10.5094 63.143C3.74988 56.2132 0.0197342 47.3536 0 38.1818V5.45455C0 4.00791 0.646507 2.62052 1.7973 1.5976C2.94809 0.574673 4.5089 0 6.13636 0H24.5454C26.1729 0 27.7337 0.574673 28.8845 1.5976C30.0353 2.62052 30.6818 4.00791 30.6818 5.45455C30.6818 6.90118 30.0353 8.28857 28.8845 9.31149C27.7337 10.3344 26.1729 10.9091 24.5454 10.9091H12.2727V38.1818C12.2727 45.415 15.5053 52.3519 21.2592 57.4665C27.0132 62.5812 34.8172 65.4545 42.9545 65.4545C51.0919 65.4545 58.8959 62.5812 64.6498 57.4665C70.4038 52.3519 73.6363 45.415 73.6363 38.1818V10.9091H61.3636C59.7362 10.9091 58.1754 10.3344 57.0246 9.31149C55.8738 8.28857 55.2273 6.90118 55.2273 5.45455C55.2273 4.00791 55.8738 2.62052 57.0246 1.5976C58.1754 0.574673 59.7362 0 61.3636 0H79.7727C81.4002 0 82.961 0.574673 84.1118 1.5976C85.2626 2.62052 85.9091 4.00791 85.9091 5.45455V38.1818C85.8893 47.3536 82.1592 56.2132 75.3997 63.143C68.6402 70.0727 59.3023 74.6103 49.0909 75.9273V81.8182C49.0909 89.0514 52.3234 95.9883 58.0774 101.103C63.8313 106.218 71.6354 109.091 79.7727 109.091C87.91 109.091 95.7141 106.218 101.468 101.103C107.222 95.9883 110.455 89.0514 110.455 81.8182V64.4291C106.36 63.1424 102.91 60.6105 100.712 57.281C98.5149 53.9515 97.7126 50.0387 98.4469 46.2342C99.1813 42.4297 101.405 38.9784 104.725 36.4903C108.045 34.0023 112.248 32.6377 116.591 32.6377C120.934 32.6377 125.136 34.0023 128.457 36.4903C131.777 38.9784 134.001 42.4297 134.735 46.2342C135.469 50.0387 134.667 53.9515 132.47 57.281C130.272 60.6105 126.822 63.1424 122.727 64.4291Z" fill="#FF5A1F"/>
</svg>
