        <svg width="453" height="200" viewBox="0 0 453 200" fill="none" xmlns="http://www.w3.org/2000/svg">
            <path d="M197.416 56.539L188.662 54.6232L174.805 43.9004L152.396 42.1135L149.424 36.678L131.659 30.2486L122.506 29.4564L124.17 22.9529L121.215 19.6185L115.802 6.20617L109.746 16.8548L92.224 18.2355L77.6647 22.1791L72.4347 15.0857L74.8755 8.74903L71.444 1.85791L67.3332 5.67181L50.9809 10.2595L55.0917 17.3336L40.887 25.0903L34.8663 17.9421L21.9647 19.8579L20.827 29.5676L24.2955 35.1676L20.8317 49.3135L6.65934 56.539L5.79704 63.5954L1.53857 69.7668L11.4124 82.5529L19.2124 79.7892L19.524 87.4726L31.2878 86.6795L39.3263 80.766L46.0993 80.0471L45.8963 86.9745L51.1463 93.5513L69.664 99.1521L71.3886 100.774L72.9847 112.473L81.1886 112.564L84.9509 119.676L84.1986 141.729L94.237 142.964L96.5863 151.438L101.982 151.788L103.854 167.706L94.5678 174.412L90.567 182.905L109.048 198.142L110.956 191.122L122.28 179.11L127.731 171.815L128.079 162.178L135.952 153.888L146.708 149.615L159.407 148.472L164.986 143.663L165.28 140.163L172.089 130.951L177.632 112.527V99.4286L181.339 97.3652L198.462 76.8595L197.416 56.539Z" fill="#0EC0D1" />
            <g clip-path="url(#clip0_70_19)">
                <path d="M146.938 107.103L131.055 91.2181C133.85 87.0778 135.34 82.1957 135.336 77.2006C135.336 63.3406 124.063 52.0625 110.201 52.0625C96.3406 52.0625 85.0625 63.3406 85.0625 77.2006C85.0625 91.0634 96.3406 102.339 110.201 102.339C115.196 102.345 120.078 100.854 124.218 98.0581L140.098 113.938L146.938 107.103ZM110.201 94.6016C105.586 94.5971 101.162 92.7621 97.8992 89.4992C94.6364 86.2363 92.8013 81.8122 92.7969 77.1978C92.8021 72.5837 94.6374 68.16 97.9001 64.8973C101.163 61.6346 105.586 59.7993 110.201 59.7941C114.815 59.7993 119.238 61.6346 122.501 64.8973C125.764 68.16 127.599 72.5837 127.604 77.1978C127.599 81.812 125.764 86.2357 122.501 89.4984C119.238 92.7611 114.815 94.5964 110.201 94.6016Z" fill="#5B228D" />
            </g>
            <path d="M210.068 147H199.523L215.591 100.455H228.273L244.318 147H233.773L222.114 111.091H221.75L210.068 147ZM209.409 128.705H234.318V136.386H209.409V128.705ZM259.42 126.818V147H249.739V112.091H258.966V118.25H259.375C260.148 116.22 261.443 114.614 263.261 113.432C265.08 112.235 267.284 111.636 269.875 111.636C272.299 111.636 274.413 112.167 276.216 113.227C278.019 114.288 279.42 115.803 280.42 117.773C281.42 119.727 281.92 122.061 281.92 124.773V147H272.239V126.5C272.254 124.364 271.708 122.697 270.602 121.5C269.496 120.288 267.973 119.682 266.034 119.682C264.731 119.682 263.58 119.962 262.58 120.523C261.595 121.083 260.822 121.902 260.261 122.977C259.716 124.038 259.436 125.318 259.42 126.818ZM299.506 147.659C297.278 147.659 295.294 147.273 293.551 146.5C291.809 145.712 290.43 144.553 289.415 143.023C288.415 141.477 287.915 139.553 287.915 137.25C287.915 135.311 288.271 133.682 288.983 132.364C289.695 131.045 290.665 129.985 291.892 129.182C293.119 128.379 294.513 127.773 296.074 127.364C297.65 126.955 299.301 126.667 301.028 126.5C303.059 126.288 304.695 126.091 305.938 125.909C307.18 125.712 308.081 125.424 308.642 125.045C309.203 124.667 309.483 124.106 309.483 123.364V123.227C309.483 121.788 309.028 120.674 308.119 119.886C307.225 119.098 305.953 118.705 304.301 118.705C302.559 118.705 301.172 119.091 300.142 119.864C299.112 120.621 298.43 121.576 298.097 122.727L289.142 122C289.597 119.879 290.491 118.045 291.824 116.5C293.157 114.939 294.877 113.742 296.983 112.909C299.104 112.061 301.559 111.636 304.347 111.636C306.286 111.636 308.142 111.864 309.915 112.318C311.703 112.773 313.286 113.477 314.665 114.432C316.059 115.386 317.157 116.614 317.96 118.114C318.763 119.598 319.165 121.379 319.165 123.455V147H309.983V142.159H309.71C309.15 143.25 308.4 144.212 307.46 145.045C306.521 145.864 305.392 146.508 304.074 146.977C302.756 147.432 301.233 147.659 299.506 147.659ZM302.278 140.977C303.703 140.977 304.96 140.697 306.051 140.136C307.142 139.561 307.998 138.788 308.619 137.818C309.241 136.848 309.551 135.75 309.551 134.523V130.818C309.248 131.015 308.831 131.197 308.301 131.364C307.786 131.515 307.203 131.659 306.551 131.795C305.9 131.917 305.248 132.03 304.597 132.136C303.945 132.227 303.354 132.311 302.824 132.386C301.688 132.553 300.695 132.818 299.847 133.182C298.998 133.545 298.339 134.038 297.869 134.659C297.4 135.265 297.165 136.023 297.165 136.932C297.165 138.25 297.642 139.258 298.597 139.955C299.566 140.636 300.794 140.977 302.278 140.977ZM336.358 100.455V147H326.676V100.455H336.358ZM344.114 147V112.091H353.795V147H344.114ZM348.977 107.591C347.538 107.591 346.303 107.114 345.273 106.159C344.258 105.189 343.75 104.03 343.75 102.682C343.75 101.348 344.258 100.205 345.273 99.25C346.303 98.2803 347.538 97.7955 348.977 97.7955C350.417 97.7955 351.644 98.2803 352.659 99.25C353.689 100.205 354.205 101.348 354.205 102.682C354.205 104.03 353.689 105.189 352.659 106.159C351.644 107.114 350.417 107.591 348.977 107.591ZM377.278 160.818C374.142 160.818 371.453 160.386 369.21 159.523C366.983 158.674 365.21 157.515 363.892 156.045C362.574 154.576 361.718 152.924 361.324 151.091L370.278 149.886C370.551 150.583 370.983 151.235 371.574 151.841C372.165 152.447 372.945 152.932 373.915 153.295C374.9 153.674 376.097 153.864 377.506 153.864C379.612 153.864 381.347 153.348 382.71 152.318C384.089 151.303 384.778 149.598 384.778 147.205V140.818H384.369C383.945 141.788 383.309 142.705 382.46 143.568C381.612 144.432 380.521 145.136 379.188 145.682C377.854 146.227 376.263 146.5 374.415 146.5C371.794 146.5 369.407 145.894 367.256 144.682C365.119 143.455 363.415 141.583 362.142 139.068C360.884 136.538 360.256 133.341 360.256 129.477C360.256 125.523 360.9 122.22 362.188 119.568C363.475 116.917 365.188 114.932 367.324 113.614C369.475 112.295 371.831 111.636 374.392 111.636C376.347 111.636 377.983 111.97 379.301 112.636C380.619 113.288 381.68 114.106 382.483 115.091C383.301 116.061 383.93 117.015 384.369 117.955H384.733V112.091H394.347V147.341C394.347 150.311 393.619 152.795 392.165 154.795C390.71 156.795 388.695 158.295 386.119 159.295C383.559 160.311 380.612 160.818 377.278 160.818ZM377.483 139.227C379.044 139.227 380.362 138.841 381.438 138.068C382.528 137.28 383.362 136.159 383.938 134.705C384.528 133.235 384.824 131.477 384.824 129.432C384.824 127.386 384.536 125.614 383.96 124.114C383.384 122.598 382.551 121.424 381.46 120.591C380.369 119.758 379.044 119.341 377.483 119.341C375.892 119.341 374.551 119.773 373.46 120.636C372.369 121.485 371.544 122.667 370.983 124.182C370.422 125.697 370.142 127.447 370.142 129.432C370.142 131.447 370.422 133.189 370.983 134.659C371.559 136.114 372.384 137.242 373.46 138.045C374.551 138.833 375.892 139.227 377.483 139.227ZM402.051 147V112.091H411.733V147H402.051ZM406.915 107.591C405.475 107.591 404.241 107.114 403.21 106.159C402.195 105.189 401.688 104.03 401.688 102.682C401.688 101.348 402.195 100.205 403.21 99.25C404.241 98.2803 405.475 97.7955 406.915 97.7955C408.354 97.7955 409.581 98.2803 410.597 99.25C411.627 100.205 412.142 101.348 412.142 102.682C412.142 104.03 411.627 105.189 410.597 106.159C409.581 107.114 408.354 107.591 406.915 107.591ZM427.58 112.091L433.989 124.295L440.557 112.091H450.489L440.375 129.545L450.761 147H440.875L433.989 134.932L427.216 147H417.216L427.58 129.545L417.58 112.091H427.58Z" fill="#5B228D" />
            <defs>
                <clipPath id="clip0_70_19">
                    <rect width="103.077" height="88.0309" fill="white" transform="translate(64.6155 44.7877)" />
                </clipPath>
            </defs>
        </svg>