<svg width="349" height="81" viewBox="0 0 349 81" fill="none" xmlns="http://www.w3.org/2000/svg">
<path d="M89.4283 62H81.1896L93.7429 25.6364H103.651L116.186 62H107.947L98.8388 33.946H98.5547L89.4283 62ZM88.9134 47.7067H108.374V53.7081H88.9134V47.7067ZM127.985 46.233V62H120.421V34.7273H127.63V39.5391H127.949C128.553 37.9529 129.565 36.6982 130.985 35.7749C132.406 34.8397 134.128 34.3722 136.152 34.3722C138.046 34.3722 139.698 34.7865 141.106 35.6151C142.515 36.4437 143.61 37.6274 144.391 39.1662C145.172 40.6932 145.563 42.5161 145.563 44.6349V62H137.999V45.9844C138.011 44.3153 137.585 43.0133 136.721 42.0781C135.856 41.1312 134.667 40.6577 133.152 40.6577C132.134 40.6577 131.234 40.8767 130.453 41.3146C129.683 41.7526 129.08 42.3918 128.642 43.2322C128.216 44.0608 127.997 45.0611 127.985 46.233ZM159.301 62.5149C157.561 62.5149 156.011 62.2131 154.649 61.6094C153.288 60.9938 152.211 60.0883 151.418 58.8928C150.637 57.6854 150.246 56.1821 150.246 54.3828C150.246 52.8677 150.524 51.5952 151.08 50.5653C151.637 49.5355 152.394 48.7069 153.353 48.0795C154.312 47.4522 155.401 46.9787 156.62 46.6591C157.851 46.3395 159.142 46.1146 160.491 45.9844C162.077 45.8187 163.356 45.6648 164.326 45.5227C165.297 45.3688 166.001 45.1439 166.439 44.848C166.877 44.5521 167.096 44.1141 167.096 43.5341V43.4276C167.096 42.303 166.741 41.433 166.031 40.8175C165.332 40.2019 164.338 39.8942 163.048 39.8942C161.686 39.8942 160.603 40.196 159.798 40.7997C158.994 41.3916 158.461 42.1373 158.2 43.0369L151.205 42.4688C151.56 40.8116 152.258 39.3793 153.3 38.1719C154.342 36.9527 155.685 36.0175 157.33 35.3665C158.988 34.7036 160.905 34.3722 163.083 34.3722C164.598 34.3722 166.048 34.5497 167.433 34.9048C168.83 35.2599 170.067 35.8104 171.144 36.5561C172.233 37.3018 173.092 38.2607 173.719 39.4325C174.346 40.5926 174.66 41.9834 174.66 43.6051V62H167.487V58.218H167.274C166.836 59.0703 166.25 59.822 165.516 60.473C164.782 61.1122 163.9 61.6153 162.87 61.9822C161.84 62.3374 160.651 62.5149 159.301 62.5149ZM161.468 57.2947C162.58 57.2947 163.563 57.0758 164.415 56.6378C165.267 56.188 165.936 55.5843 166.421 54.8267C166.907 54.0691 167.149 53.2109 167.149 52.2521V49.358C166.913 49.5118 166.587 49.6539 166.173 49.7841C165.77 49.9025 165.315 50.0149 164.806 50.1214C164.297 50.2161 163.788 50.3049 163.279 50.3878C162.77 50.4588 162.308 50.5239 161.894 50.5831C161.006 50.7133 160.231 50.9205 159.568 51.2045C158.905 51.4886 158.39 51.8733 158.023 52.3587C157.656 52.8321 157.472 53.424 157.472 54.1342C157.472 55.1641 157.845 55.9512 158.591 56.4957C159.349 57.0284 160.307 57.2947 161.468 57.2947ZM188.092 25.6364V62H180.528V25.6364H188.092ZM194.151 62V34.7273H201.715V62H194.151ZM197.951 31.2116C196.826 31.2116 195.862 30.8388 195.057 30.093C194.264 29.3355 193.867 28.4299 193.867 27.3764C193.867 26.3348 194.264 25.4411 195.057 24.6953C195.862 23.9377 196.826 23.5589 197.951 23.5589C199.076 23.5589 200.034 23.9377 200.827 24.6953C201.632 25.4411 202.035 26.3348 202.035 27.3764C202.035 28.4299 201.632 29.3355 200.827 30.093C200.034 30.8388 199.076 31.2116 197.951 31.2116ZM220.061 72.7955C217.611 72.7955 215.51 72.4581 213.758 71.7834C212.018 71.1205 210.633 70.215 209.603 69.0668C208.573 67.9186 207.905 66.6283 207.597 65.196L214.593 64.255C214.806 64.7995 215.143 65.3085 215.605 65.782C216.066 66.2554 216.676 66.6342 217.433 66.9183C218.203 67.2143 219.138 67.3622 220.239 67.3622C221.884 67.3622 223.24 66.9598 224.305 66.1548C225.382 65.3617 225.921 64.0301 225.921 62.1598V57.1705H225.601C225.27 57.928 224.772 58.6442 224.11 59.3189C223.447 59.9936 222.594 60.544 221.553 60.9702C220.511 61.3963 219.268 61.6094 217.824 61.6094C215.776 61.6094 213.912 61.1359 212.231 60.1889C210.562 59.2301 209.23 57.7682 208.236 55.8033C207.253 53.8265 206.762 51.3288 206.762 48.3104C206.762 45.2209 207.265 42.6404 208.271 40.5689C209.278 38.4974 210.615 36.9467 212.284 35.9169C213.965 34.8871 215.806 34.3722 217.806 34.3722C219.333 34.3722 220.612 34.6326 221.642 35.1534C222.671 35.6624 223.5 36.3016 224.127 37.071C224.767 37.8286 225.258 38.5743 225.601 39.3082H225.885V34.7273H233.396V62.2663C233.396 64.5864 232.828 66.5277 231.691 68.0902C230.555 69.6527 228.981 70.8246 226.968 71.6058C224.968 72.3989 222.665 72.7955 220.061 72.7955ZM220.221 55.9276C221.44 55.9276 222.47 55.6257 223.311 55.022C224.163 54.4065 224.814 53.5305 225.264 52.3942C225.725 51.246 225.956 49.8729 225.956 48.2749C225.956 46.6768 225.731 45.2919 225.281 44.12C224.832 42.9363 224.181 42.0189 223.328 41.3679C222.476 40.7169 221.44 40.3913 220.221 40.3913C218.978 40.3913 217.931 40.7287 217.078 41.4034C216.226 42.0663 215.581 42.9896 215.143 44.1733C214.705 45.357 214.486 46.7242 214.486 48.2749C214.486 49.8492 214.705 51.2105 215.143 52.3587C215.593 53.495 216.238 54.3769 217.078 55.0043C217.931 55.6198 218.978 55.9276 220.221 55.9276ZM239.415 62V34.7273H246.979V62H239.415ZM243.215 31.2116C242.09 31.2116 241.125 30.8388 240.32 30.093C239.527 29.3355 239.131 28.4299 239.131 27.3764C239.131 26.3348 239.527 25.4411 240.32 24.6953C241.125 23.9377 242.09 23.5589 243.215 23.5589C244.339 23.5589 245.298 23.9377 246.091 24.6953C246.896 25.4411 247.298 26.3348 247.298 27.3764C247.298 28.4299 246.896 29.3355 246.091 30.093C245.298 30.8388 244.339 31.2116 243.215 31.2116ZM259.359 34.7273L264.366 44.2621L269.498 34.7273H277.257L269.355 48.3636L277.47 62H269.746L264.366 52.5717L259.075 62H251.262L259.359 48.3636L251.547 34.7273H259.359Z" fill="#0EC0D1"/>
<path d="M79.575 22.2865L76.0187 21.5057L70.3897 17.1354L61.2859 16.4071L60.0784 14.1917L52.8613 11.5713L49.1428 11.2484L49.8191 8.59773L48.6188 7.23874L46.4194 1.77223L43.9591 6.11233L36.8409 6.67506L30.9262 8.28237L28.8016 5.39129L29.7931 2.80863L28.3991 0L26.7291 1.55444L20.0859 3.42424L21.7559 6.30746L15.9853 9.4689L13.5394 6.55546L8.29813 7.3363L7.83594 11.2937L9.245 13.5761L7.83781 19.3416L2.08031 22.2865L1.73 25.1625L0 27.6778L4.01125 32.889L7.18 31.7626L7.30656 34.8942L12.0856 34.5709L15.3513 32.1608L18.1028 31.8678L18.0203 34.6912L20.1531 37.3717L27.6759 39.6544L28.3766 40.3154L29.025 45.0835L32.3578 45.1209L33.8862 48.0196L33.5806 57.0076L37.6588 57.5108L38.6131 60.9646L40.8053 61.1075L41.5656 67.595L37.7931 70.3284L36.1678 73.7898L43.6756 80L44.4509 77.1388L49.0513 72.2432L51.2656 69.2697L51.4072 65.3422L54.6056 61.9633L58.975 60.2216L64.1341 59.7558L66.4006 57.796L66.52 56.3693L69.2863 52.6149L71.5378 45.1058V39.7671L73.0438 38.9262L80 30.5686L79.575 22.2865Z" fill="#0EC0D1"/>
<path d="M64 45.6864L56.2995 37.9845C57.6544 35.9771 58.3772 33.61 58.375 31.1882C58.375 24.4682 52.9095 19 46.1882 19C39.4682 19 34 24.4682 34 31.1882C34 37.9095 39.4682 43.3764 46.1882 43.3764C48.6101 43.3792 50.9774 42.6563 52.9845 41.3009L60.6836 49L64 45.6864ZM46.1882 39.625C43.9509 39.6228 41.8059 38.7331 40.2239 37.1511C38.6419 35.5691 37.7522 33.4241 37.75 31.1868C37.7525 28.9496 38.6424 26.8048 40.2243 25.2229C41.8062 23.641 43.951 22.7512 46.1882 22.7486C48.4254 22.7512 50.5702 23.641 52.1521 25.2229C53.734 26.8048 54.6238 28.9496 54.6264 31.1868C54.6238 33.424 53.734 35.5688 52.1521 37.1507C50.5702 38.7326 48.4254 39.6225 46.1882 39.625Z" fill="#5B228D"/>
</svg>
